<mxfile host="app.diagrams.net" modified="2020-04-21T07:04:32.302Z" agent="5.0 (Windows NT 10.0; Win64; x64) AppleWebKit/537.36 (KHTML, like Gecko) Chrome/80.0.3987.163 Safari/537.36" etag="gZ9AKg7peRBa43U7-WLv" version="12.9.14" type="github">
  <diagram name="Page-1" id="74b105a0-9070-1c63-61bc-23e55f88626e">
    <mxGraphModel dx="2595" dy="1248" grid="1" gridSize="10" guides="1" tooltips="1" connect="1" arrows="1" fold="1" page="1" pageScale="1.5" pageWidth="1169" pageHeight="826" background="none" math="0" shadow="0">
      <root>
        <mxCell id="0" style=";html=1;" />
        <mxCell id="1" style=";html=1;" parent="0" />
        <mxCell id="a0KS-EexGl-eNFFs-aci-103" value="" style="rounded=0;whiteSpace=wrap;html=1;strokeWidth=2;fontSize=20;" parent="1" vertex="1">
          <mxGeometry x="30" y="130" width="1660" height="310" as="geometry" />
        </mxCell>
        <mxCell id="10b056a9c633e61c-20" style="edgeStyle=orthogonalEdgeStyle;rounded=0;html=1;endArrow=block;endFill=1;jettySize=auto;orthogonalLoop=1;strokeWidth=2;startArrow=none;startFill=0;" parent="1" edge="1">
          <mxGeometry relative="1" as="geometry">
            <mxPoint x="654" y="1731.0588235294117" as="sourcePoint" />
            <mxPoint x="793.5" y="1766" as="targetPoint" />
          </mxGeometry>
        </mxCell>
        <mxCell id="10b056a9c633e61c-21" style="edgeStyle=orthogonalEdgeStyle;rounded=0;html=1;endArrow=block;endFill=1;jettySize=auto;orthogonalLoop=1;strokeWidth=2;startArrow=none;startFill=0;" parent="1" edge="1">
          <mxGeometry relative="1" as="geometry">
            <Array as="points">
              <mxPoint x="723.5" y="1686" />
              <mxPoint x="723.5" y="1936" />
            </Array>
            <mxPoint x="654" y="1686" as="sourcePoint" />
            <mxPoint x="793.5" y="1936" as="targetPoint" />
          </mxGeometry>
        </mxCell>
        <mxCell id="10b056a9c633e61c-27" style="edgeStyle=orthogonalEdgeStyle;rounded=0;html=1;endArrow=block;endFill=1;jettySize=auto;orthogonalLoop=1;strokeWidth=2;startArrow=none;startFill=0;" parent="1" source="10b056a9c633e61c-13" target="10b056a9c633e61c-15" edge="1">
          <mxGeometry relative="1" as="geometry" />
        </mxCell>
        <mxCell id="10b056a9c633e61c-13" value="Envelope Wrapper" style="strokeWidth=2;dashed=0;align=center;fontSize=12;fillColor=#c0f5a9;verticalLabelPosition=bottom;verticalAlign=top;shape=mxgraph.eip.envelope_wrapper;" parent="1" vertex="1">
          <mxGeometry x="933.5" y="2281" width="292" height="145" as="geometry" />
        </mxCell>
        <mxCell id="10b056a9c633e61c-15" value="Message Store" style="strokeWidth=2;dashed=0;align=center;fontSize=12;verticalLabelPosition=bottom;verticalAlign=top;shape=mxgraph.eip.message_store;fillColor=#c0f5a9" parent="1" vertex="1">
          <mxGeometry x="1315.5" y="2336" width="150" height="90" as="geometry" />
        </mxCell>
        <mxCell id="10b056a9c633e61c-30" value="&lt;font style=&quot;font-size: 30px&quot;&gt;Sending To Notification DB&lt;/font&gt;" style="text;strokeColor=none;fillColor=none;html=1;fontSize=24;fontStyle=1;verticalAlign=middle;align=center;" parent="1" vertex="1">
          <mxGeometry x="356" y="70" width="680" height="40" as="geometry" />
        </mxCell>
        <mxCell id="a0KS-EexGl-eNFFs-aci-5" value="" style="shape=image;html=1;verticalAlign=top;verticalLabelPosition=bottom;labelBackgroundColor=#ffffff;imageAspect=0;aspect=fixed;image=https://cdn2.iconfinder.com/data/icons/it-technology/70/BrowserClear-128.png" parent="1" vertex="1">
          <mxGeometry x="1071.5" y="1670" width="128" height="128" as="geometry" />
        </mxCell>
        <mxCell id="a0KS-EexGl-eNFFs-aci-10" value="" style="edgeStyle=orthogonalEdgeStyle;rounded=0;orthogonalLoop=1;jettySize=auto;html=1;" parent="1" source="a0KS-EexGl-eNFFs-aci-6" target="a0KS-EexGl-eNFFs-aci-9" edge="1">
          <mxGeometry relative="1" as="geometry" />
        </mxCell>
        <mxCell id="a0KS-EexGl-eNFFs-aci-6" value="" style="shape=image;html=1;verticalAlign=top;verticalLabelPosition=bottom;labelBackgroundColor=#ffffff;imageAspect=0;aspect=fixed;image=https://cdn2.iconfinder.com/data/icons/free-1/128/Page__web__web_page-128.png" parent="1" vertex="1">
          <mxGeometry x="1011.5" y="2021" width="128" height="128" as="geometry" />
        </mxCell>
        <mxCell id="a0KS-EexGl-eNFFs-aci-9" value="" style="shape=image;html=1;verticalAlign=top;verticalLabelPosition=bottom;labelBackgroundColor=#ffffff;imageAspect=0;aspect=fixed;image=https://cdn2.iconfinder.com/data/icons/free-1/128/Page__web__web_page-128.png" parent="1" vertex="1">
          <mxGeometry x="54.5" y="2021" width="128" height="128" as="geometry" />
        </mxCell>
        <mxCell id="a0KS-EexGl-eNFFs-aci-8" value="" style="html=1;strokeWidth=1;shadow=0;dashed=0;shape=mxgraph.ios7.misc.notification;fillColor=#FF3B2F;strokeColor=none;buttonText=;strokeColor2=#222222;fontColor=#222222;fontSize=8;verticalLabelPosition=bottom;verticalAlign=top;align=center;" parent="1" vertex="1">
          <mxGeometry x="471.5" y="1830" width="40" height="40" as="geometry" />
        </mxCell>
        <object label="" id="a0KS-EexGl-eNFFs-aci-11">
          <mxCell style="strokeWidth=3;outlineConnect=0;dashed=0;align=center;fontSize=8;shape=mxgraph.eip.messExp;html=1;verticalLabelPosition=bottom;verticalAlign=top" parent="1" vertex="1">
            <mxGeometry x="721.5" y="2149" width="48" height="48" as="geometry" />
          </mxCell>
        </object>
        <mxCell id="a0KS-EexGl-eNFFs-aci-14" value="Text" style="text;html=1;strokeColor=none;fillColor=none;align=center;verticalAlign=middle;whiteSpace=wrap;rounded=0;" parent="1" vertex="1">
          <mxGeometry x="401.5" y="2163" width="40" height="20" as="geometry" />
        </mxCell>
        <mxCell id="a0KS-EexGl-eNFFs-aci-24" value="" style="outlineConnect=0;fontColor=#232F3E;gradientColor=#F54749;gradientDirection=north;fillColor=#C7131F;strokeColor=#ffffff;dashed=0;verticalLabelPosition=bottom;verticalAlign=top;align=center;html=1;fontSize=12;fontStyle=0;aspect=fixed;shape=mxgraph.aws4.resourceIcon;resIcon=mxgraph.aws4.api_gateway;" parent="1" vertex="1">
          <mxGeometry x="310.5" y="2336" width="78" height="78" as="geometry" />
        </mxCell>
        <mxCell id="a0KS-EexGl-eNFFs-aci-25" value="Notification API&lt;br&gt;&lt;br&gt;&lt;br&gt;&lt;br&gt;&lt;br&gt;&lt;br&gt;&lt;br&gt;&lt;br&gt;" style="html=1;dashed=0;whitespace=wrap;fillColor=#2875E2;strokeColor=#ffffff;points=[[0.005,0.63,0],[0.1,0.2,0],[0.9,0.2,0],[0.5,0,0],[0.995,0.63,0],[0.72,0.99,0],[0.5,1,0],[0.28,0.99,0]];shape=mxgraph.kubernetes.icon;prIcon=api;fontSize=20;" parent="1" vertex="1">
          <mxGeometry x="423.5" y="2241" width="496" height="160" as="geometry" />
        </mxCell>
        <mxCell id="a0KS-EexGl-eNFFs-aci-104" style="edgeStyle=orthogonalEdgeStyle;rounded=0;orthogonalLoop=1;jettySize=auto;html=1;fontSize=20;fontColor=#000000;" parent="1" source="a0KS-EexGl-eNFFs-aci-64" target="a0KS-EexGl-eNFFs-aci-99" edge="1">
          <mxGeometry relative="1" as="geometry" />
        </mxCell>
        <mxCell id="a0KS-EexGl-eNFFs-aci-64" value="&lt;span&gt;Notification Table&lt;br&gt;*record inserted*&lt;br&gt;&lt;/span&gt;" style="html=1;verticalLabelPosition=bottom;align=center;labelBackgroundColor=#ffffff;verticalAlign=top;strokeWidth=2;strokeColor=#0080F0;shadow=0;dashed=0;shape=mxgraph.ios7.icons.data;fontSize=20;" parent="1" vertex="1">
          <mxGeometry x="1180" y="179.5" width="116.29" height="141" as="geometry" />
        </mxCell>
        <mxCell id="a0KS-EexGl-eNFFs-aci-70" value="insert in db" style="edgeStyle=orthogonalEdgeStyle;rounded=0;orthogonalLoop=1;jettySize=auto;html=1;fontSize=20;" parent="1" source="a0KS-EexGl-eNFFs-aci-67" target="a0KS-EexGl-eNFFs-aci-64" edge="1">
          <mxGeometry relative="1" as="geometry">
            <mxPoint x="1180" y="250" as="targetPoint" />
          </mxGeometry>
        </mxCell>
        <mxCell id="a0KS-EexGl-eNFFs-aci-67" value="Notification BLL/DAL" style="pointerEvents=1;shadow=0;dashed=0;html=1;strokeColor=none;fillColor=#505050;labelPosition=center;verticalLabelPosition=bottom;verticalAlign=top;outlineConnect=0;align=center;shape=mxgraph.office.servers.server_side_code;fontSize=20;" parent="1" vertex="1">
          <mxGeometry x="756.25" y="170" width="140" height="160" as="geometry" />
        </mxCell>
        <mxCell id="a0KS-EexGl-eNFFs-aci-74" value="Page" style="html=1;labelPosition=center;verticalLabelPosition=middle;verticalAlign=top;align=center;fontSize=12;outlineConnect=0;spacingTop=-6;shape=mxgraph.sitemap.page;fillColor=#b0e3e6;strokeColor=#0e8088;" parent="1" vertex="1">
          <mxGeometry x="111.5" y="1750" width="342.86" height="200" as="geometry" />
        </mxCell>
        <mxCell id="a0KS-EexGl-eNFFs-aci-96" value="call method" style="edgeStyle=orthogonalEdgeStyle;rounded=0;orthogonalLoop=1;jettySize=auto;html=1;fontSize=20;fontColor=#000000;" parent="1" edge="1">
          <mxGeometry x="-0.0099" y="21" relative="1" as="geometry">
            <mxPoint x="427.00000000000045" y="251.00000000000023" as="sourcePoint" />
            <mxPoint x="756.25" y="251.00000000000023" as="targetPoint" />
            <mxPoint as="offset" />
          </mxGeometry>
        </mxCell>
        <mxCell id="a0KS-EexGl-eNFFs-aci-95" value="&lt;font style=&quot;font-size: 20px&quot;&gt;Court page &lt;br&gt;*Judgement received*&lt;/font&gt;" style="shape=image;html=1;verticalAlign=top;verticalLabelPosition=bottom;labelBackgroundColor=#ffffff;imageAspect=0;aspect=fixed;image=https://cdn2.iconfinder.com/data/icons/free-1/128/Page__web__web_page-128.png" parent="1" vertex="1">
          <mxGeometry x="299" y="186" width="128" height="128" as="geometry" />
        </mxCell>
        <mxCell id="a0KS-EexGl-eNFFs-aci-98" style="edgeStyle=orthogonalEdgeStyle;rounded=0;orthogonalLoop=1;jettySize=auto;html=1;entryX=0;entryY=0.5;entryDx=0;entryDy=0;fontSize=20;fontColor=#000000;" parent="1" source="a0KS-EexGl-eNFFs-aci-97" target="a0KS-EexGl-eNFFs-aci-95" edge="1">
          <mxGeometry relative="1" as="geometry" />
        </mxCell>
        <mxCell id="a0KS-EexGl-eNFFs-aci-97" value="Start" style="shape=mxgraph.bpmn.shape;html=1;verticalLabelPosition=bottom;labelBackgroundColor=#ffffff;verticalAlign=top;align=center;perimeter=ellipsePerimeter;outlineConnect=0;outline=standard;symbol=general;strokeWidth=5;fillColor=#D4E1F5;fontSize=20;fontColor=#000000;" parent="1" vertex="1">
          <mxGeometry x="80" y="225" width="50" height="50" as="geometry" />
        </mxCell>
        <mxCell id="a0KS-EexGl-eNFFs-aci-99" value="End&lt;br&gt;&lt;br&gt;&lt;br&gt;&lt;br&gt;" style="ellipse;html=1;shape=endState;fillColor=#000000;strokeColor=#ff0000;fontSize=20;fontColor=#000000;" parent="1" vertex="1">
          <mxGeometry x="1495.5" y="225" width="50" height="50" as="geometry" />
        </mxCell>
        <mxCell id="a0KS-EexGl-eNFFs-aci-116" value="" style="rounded=0;whiteSpace=wrap;html=1;strokeWidth=2;fontSize=20;" parent="1" vertex="1">
          <mxGeometry x="40" y="595" width="1690" height="370" as="geometry" />
        </mxCell>
        <mxCell id="a0KS-EexGl-eNFFs-aci-117" value="&lt;font style=&quot;font-size: 30px&quot;&gt;Show Notification&amp;nbsp;In Court Page&lt;/font&gt;" style="text;strokeColor=none;fillColor=none;html=1;fontSize=24;fontStyle=1;verticalAlign=middle;align=center;" parent="1" vertex="1">
          <mxGeometry x="280" y="541" width="680" height="40" as="geometry" />
        </mxCell>
        <mxCell id="a0KS-EexGl-eNFFs-aci-118" style="edgeStyle=orthogonalEdgeStyle;rounded=0;orthogonalLoop=1;jettySize=auto;html=1;fontSize=20;fontColor=#000000;" parent="1" source="a0KS-EexGl-eNFFs-aci-132" target="a0KS-EexGl-eNFFs-aci-126" edge="1">
          <mxGeometry relative="1" as="geometry" />
        </mxCell>
        <mxCell id="a0KS-EexGl-eNFFs-aci-133" style="edgeStyle=orthogonalEdgeStyle;rounded=0;orthogonalLoop=1;jettySize=auto;html=1;entryX=0;entryY=0.5;entryDx=0;entryDy=0;fontSize=20;fontColor=#000000;" parent="1" source="a0KS-EexGl-eNFFs-aci-119" target="a0KS-EexGl-eNFFs-aci-132" edge="1">
          <mxGeometry relative="1" as="geometry" />
        </mxCell>
        <mxCell id="a0KS-EexGl-eNFFs-aci-119" value="&lt;span&gt;Notification Table&lt;br&gt;*record inserted*&lt;br&gt;&lt;/span&gt;" style="html=1;verticalLabelPosition=bottom;align=center;labelBackgroundColor=#ffffff;verticalAlign=top;strokeWidth=2;strokeColor=#0080F0;shadow=0;dashed=0;shape=mxgraph.ios7.icons.data;fontSize=20;" parent="1" vertex="1">
          <mxGeometry x="1139.5" y="644.5" width="116.29" height="141" as="geometry" />
        </mxCell>
        <mxCell id="a0KS-EexGl-eNFFs-aci-120" style="edgeStyle=orthogonalEdgeStyle;rounded=0;orthogonalLoop=1;jettySize=auto;html=1;fontSize=20;exitX=1;exitY=0.5;exitDx=0;exitDy=0;" parent="1" source="a0KS-EexGl-eNFFs-aci-157" target="a0KS-EexGl-eNFFs-aci-119" edge="1">
          <mxGeometry relative="1" as="geometry">
            <mxPoint x="1190" y="715" as="targetPoint" />
          </mxGeometry>
        </mxCell>
        <mxCell id="a0KS-EexGl-eNFFs-aci-159" style="edgeStyle=orthogonalEdgeStyle;rounded=0;orthogonalLoop=1;jettySize=auto;html=1;entryX=0;entryY=0.5;entryDx=0;entryDy=0;fontSize=20;fontColor=#000000;" parent="1" source="a0KS-EexGl-eNFFs-aci-121" target="a0KS-EexGl-eNFFs-aci-157" edge="1">
          <mxGeometry relative="1" as="geometry" />
        </mxCell>
        <mxCell id="a0KS-EexGl-eNFFs-aci-121" value="Notification BLL/DAL" style="pointerEvents=1;shadow=0;dashed=0;html=1;strokeColor=none;fillColor=#505050;labelPosition=center;verticalLabelPosition=bottom;verticalAlign=top;outlineConnect=0;align=center;shape=mxgraph.office.servers.server_side_code;fontSize=20;" parent="1" vertex="1">
          <mxGeometry x="610" y="635" width="140" height="160" as="geometry" />
        </mxCell>
        <mxCell id="a0KS-EexGl-eNFFs-aci-122" style="edgeStyle=orthogonalEdgeStyle;rounded=0;orthogonalLoop=1;jettySize=auto;html=1;fontSize=20;fontColor=#000000;" parent="1" source="a0KS-EexGl-eNFFs-aci-123" target="a0KS-EexGl-eNFFs-aci-121" edge="1">
          <mxGeometry relative="1" as="geometry" />
        </mxCell>
        <mxCell id="a0KS-EexGl-eNFFs-aci-130" value="call ajax method" style="edgeLabel;html=1;align=center;verticalAlign=middle;resizable=0;points=[];fontSize=20;fontColor=#000000;" parent="a0KS-EexGl-eNFFs-aci-122" vertex="1" connectable="0">
          <mxGeometry x="-0.1952" relative="1" as="geometry">
            <mxPoint x="5" y="-15" as="offset" />
          </mxGeometry>
        </mxCell>
        <mxCell id="a0KS-EexGl-eNFFs-aci-123" value="&lt;font style=&quot;font-size: 20px&quot;&gt;Court page &lt;br&gt;*page load*&lt;/font&gt;" style="shape=image;html=1;verticalAlign=top;verticalLabelPosition=bottom;labelBackgroundColor=#ffffff;imageAspect=0;aspect=fixed;image=https://cdn2.iconfinder.com/data/icons/free-1/128/Page__web__web_page-128.png" parent="1" vertex="1">
          <mxGeometry x="257" y="651" width="128" height="128" as="geometry" />
        </mxCell>
        <mxCell id="a0KS-EexGl-eNFFs-aci-124" style="edgeStyle=orthogonalEdgeStyle;rounded=0;orthogonalLoop=1;jettySize=auto;html=1;entryX=0;entryY=0.5;entryDx=0;entryDy=0;fontSize=20;fontColor=#000000;" parent="1" source="a0KS-EexGl-eNFFs-aci-125" target="a0KS-EexGl-eNFFs-aci-123" edge="1">
          <mxGeometry relative="1" as="geometry" />
        </mxCell>
        <mxCell id="a0KS-EexGl-eNFFs-aci-125" value="Start" style="shape=mxgraph.bpmn.shape;html=1;verticalLabelPosition=bottom;labelBackgroundColor=#ffffff;verticalAlign=top;align=center;perimeter=ellipsePerimeter;outlineConnect=0;outline=standard;symbol=general;strokeWidth=5;fillColor=#D4E1F5;fontSize=20;fontColor=#000000;" parent="1" vertex="1">
          <mxGeometry x="90" y="690" width="50" height="50" as="geometry" />
        </mxCell>
        <mxCell id="a0KS-EexGl-eNFFs-aci-126" value="End&lt;br&gt;&lt;br&gt;&lt;br&gt;&lt;br&gt;" style="ellipse;html=1;shape=endState;fillColor=#000000;strokeColor=#ff0000;fontSize=20;fontColor=#000000;" parent="1" vertex="1">
          <mxGeometry x="1640" y="690" width="50" height="50" as="geometry" />
        </mxCell>
        <mxCell id="a0KS-EexGl-eNFFs-aci-132" value="&lt;font style=&quot;font-size: 20px&quot;&gt;Court page &lt;br&gt;*show in page*&lt;/font&gt;" style="shape=image;html=1;verticalAlign=top;verticalLabelPosition=bottom;labelBackgroundColor=#ffffff;imageAspect=0;aspect=fixed;image=https://cdn2.iconfinder.com/data/icons/free-1/128/Page__web__web_page-128.png" parent="1" vertex="1">
          <mxGeometry x="1410" y="651" width="128" height="128" as="geometry" />
        </mxCell>
        <mxCell id="a0KS-EexGl-eNFFs-aci-135" value="Text" style="text;html=1;align=center;verticalAlign=middle;resizable=0;points=[];autosize=1;fontSize=20;fontColor=#000000;" parent="1" vertex="1">
          <mxGeometry x="1701" y="2297" width="50" height="30" as="geometry" />
        </mxCell>
        <mxCell id="a0KS-EexGl-eNFFs-aci-136" value="" style="rounded=0;whiteSpace=wrap;html=1;strokeWidth=2;fontSize=20;" parent="1" vertex="1">
          <mxGeometry x="44.5" y="1074" width="1440" height="370" as="geometry" />
        </mxCell>
        <mxCell id="a0KS-EexGl-eNFFs-aci-137" value="&lt;font style=&quot;font-size: 30px&quot;&gt;Send Notification&amp;nbsp;-&amp;nbsp; Email/SMS&lt;/font&gt;" style="text;strokeColor=none;fillColor=none;html=1;fontSize=24;fontStyle=1;verticalAlign=middle;align=center;" parent="1" vertex="1">
          <mxGeometry x="284.5" y="1020" width="680" height="40" as="geometry" />
        </mxCell>
        <mxCell id="a0KS-EexGl-eNFFs-aci-138" style="edgeStyle=orthogonalEdgeStyle;rounded=0;orthogonalLoop=1;jettySize=auto;html=1;fontSize=20;fontColor=#000000;" parent="1" source="a0KS-EexGl-eNFFs-aci-152" target="a0KS-EexGl-eNFFs-aci-148" edge="1">
          <mxGeometry relative="1" as="geometry">
            <mxPoint x="1212.5" y="1194" as="sourcePoint" />
          </mxGeometry>
        </mxCell>
        <mxCell id="a0KS-EexGl-eNFFs-aci-139" style="edgeStyle=orthogonalEdgeStyle;rounded=0;orthogonalLoop=1;jettySize=auto;html=1;fontSize=20;fontColor=#000000;" parent="1" source="a0KS-EexGl-eNFFs-aci-140" target="a0KS-EexGl-eNFFs-aci-152" edge="1">
          <mxGeometry relative="1" as="geometry">
            <mxPoint x="1084.5" y="1194" as="targetPoint" />
          </mxGeometry>
        </mxCell>
        <mxCell id="a0KS-EexGl-eNFFs-aci-140" value="&lt;span&gt;Notification Table&lt;br&gt;*record inserted*&lt;br&gt;&lt;/span&gt;" style="html=1;verticalLabelPosition=bottom;align=center;labelBackgroundColor=#ffffff;verticalAlign=top;strokeWidth=2;strokeColor=#0080F0;shadow=0;dashed=0;shape=mxgraph.ios7.icons.data;fontSize=20;" parent="1" vertex="1">
          <mxGeometry x="834.5" y="1123.5" width="116.29" height="141" as="geometry" />
        </mxCell>
        <mxCell id="a0KS-EexGl-eNFFs-aci-141" style="edgeStyle=orthogonalEdgeStyle;rounded=0;orthogonalLoop=1;jettySize=auto;html=1;fontSize=20;" parent="1" source="a0KS-EexGl-eNFFs-aci-142" target="a0KS-EexGl-eNFFs-aci-140" edge="1">
          <mxGeometry relative="1" as="geometry">
            <mxPoint x="1194.5" y="1194" as="targetPoint" />
          </mxGeometry>
        </mxCell>
        <mxCell id="a0KS-EexGl-eNFFs-aci-142" value="Notification BLL/DAL" style="pointerEvents=1;shadow=0;dashed=0;html=1;strokeColor=none;fillColor=#505050;labelPosition=center;verticalLabelPosition=bottom;verticalAlign=top;outlineConnect=0;align=center;shape=mxgraph.office.servers.server_side_code;fontSize=20;" parent="1" vertex="1">
          <mxGeometry x="584.5" y="1114" width="140" height="160" as="geometry" />
        </mxCell>
        <mxCell id="a0KS-EexGl-eNFFs-aci-143" style="edgeStyle=orthogonalEdgeStyle;rounded=0;orthogonalLoop=1;jettySize=auto;html=1;fontSize=20;fontColor=#000000;" parent="1" source="a0KS-EexGl-eNFFs-aci-150" target="a0KS-EexGl-eNFFs-aci-142" edge="1">
          <mxGeometry relative="1" as="geometry">
            <mxPoint x="352.5" y="1194" as="sourcePoint" />
          </mxGeometry>
        </mxCell>
        <mxCell id="a0KS-EexGl-eNFFs-aci-144" value="call method" style="edgeLabel;html=1;align=center;verticalAlign=middle;resizable=0;points=[];fontSize=20;fontColor=#000000;" parent="a0KS-EexGl-eNFFs-aci-143" vertex="1" connectable="0">
          <mxGeometry x="-0.1952" relative="1" as="geometry">
            <mxPoint x="-1" as="offset" />
          </mxGeometry>
        </mxCell>
        <mxCell id="a0KS-EexGl-eNFFs-aci-146" style="edgeStyle=orthogonalEdgeStyle;rounded=0;orthogonalLoop=1;jettySize=auto;html=1;fontSize=20;fontColor=#000000;" parent="1" source="a0KS-EexGl-eNFFs-aci-147" target="a0KS-EexGl-eNFFs-aci-150" edge="1">
          <mxGeometry relative="1" as="geometry" />
        </mxCell>
        <mxCell id="a0KS-EexGl-eNFFs-aci-147" value="Start" style="shape=mxgraph.bpmn.shape;html=1;verticalLabelPosition=bottom;labelBackgroundColor=#ffffff;verticalAlign=top;align=center;perimeter=ellipsePerimeter;outlineConnect=0;outline=standard;symbol=general;strokeWidth=5;fillColor=#D4E1F5;fontSize=20;fontColor=#000000;" parent="1" vertex="1">
          <mxGeometry x="94.5" y="1169" width="50" height="50" as="geometry" />
        </mxCell>
        <mxCell id="a0KS-EexGl-eNFFs-aci-148" value="End&lt;br&gt;&lt;br&gt;&lt;br&gt;&lt;br&gt;" style="ellipse;html=1;shape=endState;fillColor=#000000;strokeColor=#ff0000;fontSize=20;fontColor=#000000;" parent="1" vertex="1">
          <mxGeometry x="1344.5" y="1169" width="50" height="50" as="geometry" />
        </mxCell>
        <mxCell id="a0KS-EexGl-eNFFs-aci-150" value="&lt;span style=&quot;font-size: 20px&quot;&gt;Daily service&lt;/span&gt;" style="outlineConnect=0;fontColor=#232F3E;gradientColor=none;fillColor=#BC1356;strokeColor=none;dashed=0;verticalLabelPosition=bottom;verticalAlign=top;align=center;html=1;fontSize=12;fontStyle=0;aspect=fixed;pointerEvents=1;shape=mxgraph.aws4.maintenance_windows;" parent="1" vertex="1">
          <mxGeometry x="253.5" y="1126.5" width="135" height="135" as="geometry" />
        </mxCell>
        <mxCell id="a0KS-EexGl-eNFFs-aci-152" value="" style="outlineConnect=0;fontColor=#232F3E;gradientColor=none;fillColor=#3334B9;strokeColor=none;dashed=0;verticalLabelPosition=bottom;verticalAlign=top;align=center;html=1;fontSize=12;fontStyle=0;aspect=fixed;pointerEvents=1;shape=mxgraph.aws4.email;" parent="1" vertex="1">
          <mxGeometry x="1080" y="1139.59" width="123" height="108.81" as="geometry" />
        </mxCell>
        <mxCell id="a0KS-EexGl-eNFFs-aci-153" value="" style="outlineConnect=0;dashed=0;verticalLabelPosition=bottom;verticalAlign=top;align=center;html=1;shape=mxgraph.aws3.email;fillColor=#D9A741;gradientColor=none;strokeWidth=2;fontSize=20;fontColor=#000000;" parent="1" vertex="1">
          <mxGeometry x="1101" y="1300" width="81" height="61.5" as="geometry" />
        </mxCell>
        <mxCell id="a0KS-EexGl-eNFFs-aci-154" value="" style="outlineConnect=0;dashed=0;verticalLabelPosition=bottom;verticalAlign=top;align=center;html=1;shape=mxgraph.aws3.email_notification;fillColor=#D9A741;gradientColor=none;strokeWidth=2;fontSize=20;fontColor=#000000;" parent="1" vertex="1">
          <mxGeometry x="900" y="1350" width="100.5" height="63" as="geometry" />
        </mxCell>
        <mxCell id="a0KS-EexGl-eNFFs-aci-155" value="Email" style="outlineConnect=0;fontColor=#232F3E;gradientColor=none;strokeColor=#232F3E;fillColor=#ffffff;dashed=0;verticalLabelPosition=bottom;verticalAlign=top;align=center;html=1;fontSize=12;fontStyle=0;aspect=fixed;shape=mxgraph.aws4.resourceIcon;resIcon=mxgraph.aws4.email;" parent="1" vertex="1">
          <mxGeometry x="1250" y="1260" width="60" height="60" as="geometry" />
        </mxCell>
        <mxCell id="a0KS-EexGl-eNFFs-aci-156" value="" style="verticalLabelPosition=bottom;html=1;verticalAlign=top;align=center;strokeColor=none;fillColor=#00BEF2;shape=mxgraph.azure.message;pointerEvents=1;fontSize=20;fontColor=#000000;" parent="1" vertex="1">
          <mxGeometry x="690" y="1363" width="50" height="37.5" as="geometry" />
        </mxCell>
        <mxCell id="a0KS-EexGl-eNFFs-aci-158" style="edgeStyle=orthogonalEdgeStyle;rounded=0;orthogonalLoop=1;jettySize=auto;html=1;entryX=0.5;entryY=1;entryDx=0;entryDy=0;fontSize=20;fontColor=#000000;exitX=0.5;exitY=1;exitDx=0;exitDy=0;" parent="1" source="a0KS-EexGl-eNFFs-aci-157" target="a0KS-EexGl-eNFFs-aci-126" edge="1">
          <mxGeometry relative="1" as="geometry">
            <Array as="points">
              <mxPoint x="942" y="900" />
              <mxPoint x="1665" y="900" />
            </Array>
          </mxGeometry>
        </mxCell>
        <mxCell id="a0KS-EexGl-eNFFs-aci-157" value="J.date &amp;lt; 30 days" style="rhombus;whiteSpace=wrap;html=1;strokeWidth=2;fillColor=#D4E1F5;fontSize=20;fontColor=#000000;" parent="1" vertex="1">
          <mxGeometry x="860" y="632.25" width="164" height="164" as="geometry" />
        </mxCell>
      </root>
    </mxGraphModel>
  </diagram>
</mxfile>
